#!OML:ASF E:\id_vita\Project 1\Capture day 1\Session 1\Male1.ASF
:FULLY-SPECIFIED
:DEGREES
751
root 4.76515 12.6404 -8.7495 55.3368 79.9818 12.1669
lowerback 28.1259 0.234093 -5.07026
upperback 6.41656 -0.613094 0.391595
thorax -8.25797 -0.00959643 3.5465
lowerneck -8.64373 1.77512 0.297287
upperneck 3.14276 2.29774 1.08267
head 2.48416 1.19266 0.405156
rclavicle 3.29983e-014 4.62174e-015
rhumerus 64.7496 19.6851 -46.9726
rradius 28.9612
rwrist 15.3308
rhand -46.1473 83.2448
rfingers 7.12502
rthumb -18.8874 54.1418
lclavicle 3.29983e-014 4.62174e-015
lhumerus 63.5123 -3.54895 66.4814
lradius 14.9283
lwrist -40.2696
lhand -38.2914 77.8798
lfingers 7.12502
lthumb -11.3203 -107.554
rfemur -81.1496 1.15848 24.5282
rtibia 91.7832
rfoot -46.0002 -22.046
rtoes -11.8151
lfemur -1.86112 -2.64036 -30.5961
ltibia 27.3668
lfoot -0.484721 -2.95705
ltoes 47.5761
752
root 4.86035 12.6657 -8.76045 54.9989 79.5818 11.3445
lowerback 27.7055 0.274567 -5.1613
upperback 6.36785 -0.588183 0.294874
thorax -8.10761 -0.00550183 3.4773
lowerneck -8.494 1.84091 0.163291
upperneck 2.90296 2.39673 1.26179
head 2.37166 1.24609 0.485722
rclavicle -4.35338e-014 -2.34566e-014
rhumerus 64.8344 19.7267 -47.0596
rradius 29.0321
rwrist 15.5263
rhand -46.3476 83.5718
rfingers 7.12502
rthumb -19.08 54.4877
lclavicle -4.35338e-014 -2.34566e-014
lhumerus 63.3586 -3.18389 67.4381
lradius 14.7923
lwrist -41.2725
lhand -38.2816 77.865
lfingers 7.12502
lthumb -11.3108 -107.54
rfemur -81.1174 1.37053 24.2832
rtibia 91.1875
rfoot -44.4468 -24.9656
rtoes -17.7589
lfemur -2.68087 -2.75729 -30.7205
ltibia 27.7515
lfoot 0.830061 -3.26864
ltoes 48.0666
753
root 4.9755 12.7014 -8.76574 57.1668 79.8325 13.6251
lowerback 28.0354 -0.0167548 -4.80731
upperback 6.33673 -0.870617 0.291824
thorax -8.28777 -0.134926 3.3694
lowerneck -8.29489 1.8837 0.148119
upperneck 2.63396 2.4618 1.245
head 2.24465 1.27709 0.480276
rclavicle -2.18663e-015 1.85367e-014
rhumerus 64.8135 19.8221 -47.3081
rradius 28.9613
rwrist 15.7276
rhand -46.6086 83.9199
rfingers 7.12502
rthumb -19.331 54.8607
lclavicle -2.18663e-015 1.85367e-014
lhumerus 63.1117 -3.06898 67.822
lradius 14.6893
lwrist -41.6515
lhand -38.0678 78.199
lfingers 7.12502
lthumb -11.1047 -107.885
rfemur -80.3519 0.73756 24.288
rtibia 90.595
rfoot -43.4487 -26.8673
rtoes -20.7646
lfemur -2.7756 -3.06802 -30.5289
ltibia 27.8672
lfoot 2.49056 -4.19397
ltoes 48.6052
754
root 5.09453 12.7485 -8.77308 53.9806 79.3702 10.1216
lowerback 27.8365 0.220696 -4.85593
upperback 6.29531 -0.585534 0.322948
thorax -8.26105 -0.00646904 3.33428
lowerneck -8.63075 1.88832 0.312036
upperneck 2.98846 2.45954 0.895249
head 2.43159 1.26707 0.348665
rclavicle -1.11319e-014 2.28602e-015
rhumerus 64.894 19.9714 -47.1225
rradius 29.0283
rwrist 15.694
rhand -46.751 83.981
rfingers 7.12502
rthumb -19.4679 54.9356
lclavicle -1.11319e-014 2.28602e-015
lhumerus 63.0374 -3.11061 67.378
lradius 14.641
lwrist -41.0378
lhand -38.0689 78.5537
lfingers 7.12502
lthumb -11.1058 -108.24
rfemur -80.1019 1.26825 24.6235
rtibia 89.8973
rfoot -39.7659 -31.9151
rtoes -27.9803
lfemur -3.59804 -2.69112 -30.3735
ltibia 28.5221
lfoot 3.9627 -5.13337
ltoes 47.4448
755
root 5.219 12.7908 -8.7646 51.5175 78.982 7.84834
lowerback 28.0418 0.482683 -5.16011
upperback 6.44896 -0.324831 0.431919
thorax -8.20591 0.120072 3.54527
lowerneck -9.04451 1.90777 0.412227
upperneck 3.45077 2.48272 0.577773
head 2.67028 1.26898 0.240427
rclavicle 4.01545e-014 2.5345e-014
rhumerus 65.2234 20.0944 -46.4602
rradius 29.1004
rwrist 15.3784
rhand -46.8725 83.9559
rfingers 7.12502
rthumb -19.5847 54.9224
lclavicle 4.01545e-014 2.5345e-014
lhumerus 63.0208 -3.06266 67.0759
lradius 14.6415
lwrist -40.6136
lhand -38.214 78.0488
lfingers 7.12502
lthumb -11.2457 -107.727
rfemur -79.2518 1.74006 24.93
rtibia 89.2561
rfoot -35.1335 -36.7671
rtoes -33.298
lfemur -3.8082 -2.27567 -30.1386
ltibia 29.1315
lfoot 5.6566 -6.15522
ltoes 44.8074
756
root 5.28387 12.7778 -8.78232 52.4304 79.0307 8.53682
lowerback 27.8507 0.320388 -4.84694
upperback 6.43837 -0.436185 0.436731
thorax -8.11874 0.0590727 3.40525
lowerneck -9.00419 1.94373 0.417704
upperneck 3.47238 2.53843 0.42021
head 2.67222 1.29068 0.191319
rclavicle -3.91606e-014 7.55382e-015
rhumerus 65.3978 20.2238 -45.9252
rradius 29.1671
rwrist 15.1807
rhand -46.9644 83.9203
rfingers 7.12502
rthumb -19.673 54.8958
lclavicle -3.91606e-014 7.55382e-015
lhumerus 62.8749 -2.94868 67.501
lradius 14.6497
lwrist -40.8927
lhand -38.2333 77.4401
lfingers 7.12502
lthumb -11.2643 -107.118
rfemur -78.3471 1.71088 23.7254
rtibia 89.4283
rfoot -45.4614 -24.4707
rtoes -17.0438
lfemur -4.8134 -2.48312 -29.9641
ltibia 30.0653
lfoot 7.77573 -6.97713
ltoes 43.051
757
root 5.38638 12.8048 -8.77625 51.0631 78.6967 7.29152
lowerback 28.0746 0.514518 -5.0266
upperback 6.45923 -0.25205 0.420329
thorax -8.21994 0.151105 3.4308
lowerneck -8.79405 1.92618 0.394141
upperneck 3.43749 2.51585 0.465351
head 2.62 1.28029 0.205779
rclavicle 1.37161e-014 1.70458e-014
rhumerus 65.376 20.3074 -45.6983
rradius 29.1852
rwrist 15.104
rhand -47.0698 83.7945
rfingers 7.12502
rthumb -19.7744 54.7804
lclavicle 1.37161e-014 1.70458e-014
lhumerus 62.6828 -3.21967 67.2163
lradius 14.741
lwrist -40.2681
lhand -38.4691 78.3248
lfingers 7.12502
lthumb -11.4917 -107.99
rfemur -77.4402 2.02533 23.5202
rtibia 89.0249
rfoot -45.9399 -24.1196
rtoes -16.9586
lfemur -5.41552 -2.03176 -29.7834
ltibia 31.0422
lfoot 9.45579 -8.12334
ltoes 40.9713
758
root 5.48671 12.8296 -8.77667 50.9593 78.4588 7.164
lowerback 28.052 0.570754 -5.09413
upperback 6.51444 -0.200956 0.35761
thorax -8.15053 0.173691 3.38154
lowerneck -8.76294 1.87379 0.347609
upperneck 3.46761 2.4417 0.633498
head 2.62158 1.24869 0.263992
rclavicle 8.74653e-015 -1.51076e-014
rhumerus 65.3719 20.2485 -45.6292
rradius 29.2356
rwrist 15.0225
rhand -47.2539 83.9484
rfingers 7.12502
rthumb -19.9513 54.9526
lclavicle 8.74653e-015 -1.51076e-014
lhumerus 62.591 -3.36227 67.095
lradius 14.7185
lwrist -39.9992
lhand -38.4941 79.2465
lfingers 7.12502
lthumb -11.5158 -108.91
rfemur -76.767 2.13157 23.229
rtibia 88.6924
rfoot -46.2679 -24.0121
rtoes -16.9
lfemur -6.35317 -1.81653 -29.6935
ltibia 32.3643
lfoot 10.6564 -9.24106
ltoes 38.4558
759
root 5.59776 12.8657 -8.77382 50.1148 78.3381 6.32482
lowerback 28.0429 0.629618 -5.04762
upperback 6.60659 -0.105639 0.364111
thorax -8.05134 0.214472 3.32907
lowerneck -8.7937 1.88027 0.382859
upperneck 3.33774 2.45077 0.583797
head 2.58456 1.25231 0.241652
rclavicle -5.60573e-014 -2.06239e-014
rhumerus 65.3966 20.2541 -45.3464
rradius 29.4536
rwrist 14.8729
rhand -47.3179 84.0554
rfingers 7.12502
rthumb -20.0129 55.066
lclavicle -5.60573e-014 -2.06239e-014
lhumerus 62.5939 -2.96629 68.277
lradius 14.4726
lwrist -41.2904
lhand -38.0376 79.2837
lfingers 7.12502
lthumb -11.0756 -108.971
rfemur -75.9178 2.22564 23.2313
rtibia 88.1273
rfoot -46.1772 -24.5033
rtoes -17.7001
lfemur -7.11177 -1.43724 -29.3689
ltibia 33.3084
lfoot 12.0902 -10.0999
ltoes 36.2479
